<svg id="design" xmlns="http://www.w3.org/2000/svg" viewBox="0 0 48 48"><defs><style>.cls-1{fill:none;}.cls-2{opacity:0.4;}.cls-3{fill:#fff;}.cls-4{opacity:0.6;}</style></defs><title>vim-group-icon</title><rect class="cls-1" width="48" height="48"/><g class="cls-2"><circle class="cls-3" cx="23.99" cy="2.93" r="2.93"/><circle class="cls-3" cx="15.03" cy="4.91" r="2.93"/><circle class="cls-3" cx="33.14" cy="43.02" r="2.93"/><circle class="cls-3" cx="23.99" cy="45.07" r="2.93"/><circle class="cls-3" cx="14.86" cy="43.02" r="2.93"/><circle class="cls-3" cx="3.39" cy="19.43" r="2.93"/><circle class="cls-3" cx="7.5" cy="37.09" r="2.93"/><circle class="cls-3" cx="44.61" cy="19.43" r="2.93"/><path class="cls-3" d="M5660.49,8046.4a2.93,2.93,0,1,1-2.92-2.93A2.92,2.92,0,0,1,5660.49,8046.4Z" transform="translate(-5613 -8017.69)"/><circle class="cls-3" cx="40.5" cy="37.08" r="2.93"/><circle class="cls-3" cx="32.96" cy="4.91" r="2.93"/><circle class="cls-3" cx="3.43" cy="28.7" r="2.93"/></g><g class="cls-4"><circle class="cls-3" cx="19.37" cy="12.06" r="2.93"/><circle class="cls-3" cx="23.99" cy="19.08" r="2.93"/><path class="cls-3" d="M5648.55,8052.71a2.93,2.93,0,1,1-2.92-2.93A2.92,2.92,0,0,1,5648.55,8052.71Z" transform="translate(-5613 -8017.69)"/><circle class="cls-3" cx="15.37" cy="35.01" r="2.93"/><path class="cls-3" d="M5653.46,8044.1a2.93,2.93,0,1,1-2.93-2.93A2.92,2.92,0,0,1,5653.46,8044.1Z" transform="translate(-5613 -8017.69)"/><circle class="cls-3" cx="28.63" cy="12.06" r="2.93"/><circle class="cls-3" cx="10.46" cy="26.4" r="2.93"/></g><circle class="cls-3" cx="5620.57" cy="8028.04" r="3.54" transform="translate(-5634.84 -8002.36) rotate(-0.16)"/><path class="cls-3" d="M5629.58,8035.8a3.54,3.54,0,1,1-3.55-3.55A3.52,3.52,0,0,1,5629.58,8035.8Z" transform="translate(-5613 -8017.69)"/><path class="cls-3" d="M5635.06,8043.54a3.54,3.54,0,1,1-3.55-3.53A3.54,3.54,0,0,1,5635.06,8043.54Z" transform="translate(-5613 -8017.69)"/><circle class="cls-3" cx="5653.43" cy="8028.04" r="3.54" transform="translate(-8002.98 5641.9) rotate(-89.84)"/><circle class="cls-3" cx="5647.96" cy="8035.8" r="3.54" transform="translate(-8012.42 5649.55) rotate(-89.88)"/><path class="cls-3" d="M5638.94,8043.54a3.54,3.54,0,1,0,3.55-3.53A3.54,3.54,0,0,0,5638.94,8043.54Z" transform="translate(-5613 -8017.69)"/><circle class="cls-3" cx="5637" cy="8051.86" r="3.54" transform="translate(-8042.21 5650.61) rotate(-89.85)"/></svg>