<svg id="design" xmlns="http://www.w3.org/2000/svg" viewBox="0 0 48 48"><defs><style>.cls-1{fill:none;}.cls-2{fill:#fff;}</style></defs><title>cynthia-icon</title><rect class="cls-1" width="48" height="48"/><path class="cls-2" d="M5642.52,7731.34l4.55,1.17a15.19,15.19,0,0,1-.51,2.73,44.41,44.41,0,0,1-10.17,18.32,17.28,17.28,0,0,1-10.7,5.69c-8.74,1-14.37-4.62-16.82-9.7a26.07,26.07,0,0,1-1.54-17.93,31.89,31.89,0,0,1,6.59-13.51,18.81,18.81,0,0,1,9.88-6.41c5.87-1.45,10.79,1.89,11.4,7.87a34.77,34.77,0,0,1,0,5.49l-4.67-.53a25.32,25.32,0,0,0-.46-4c-0.57-3.22-2.24-4.43-5.37-3.58a12.24,12.24,0,0,0-4.19,2.19c-7,5.44-10.58,17.32-7.81,25.68a17.63,17.63,0,0,0,2.78,5.23,10.34,10.34,0,0,0,13.93,2.41c3.67-2.21,6.09-5.58,8-9.23,1.61-3,2.76-6.32,4.11-9.5C5641.87,7733,5642.15,7732.27,5642.52,7731.34Z" transform="translate(-5602.75 -7711.36)"/></svg>