<svg id="design" xmlns="http://www.w3.org/2000/svg" viewBox="0 0 48 48"><defs><style>.cls-1,.cls-2{fill:#fff;}.cls-1{opacity:0.4;}.cls-3{fill:none;}</style></defs><title>finqle-logo</title><path class="cls-1" d="M5613.23,7661.45a1.74,1.74,0,0,0,.23,2l11.58,18.25,6.12-11.27a1.77,1.77,0,0,0-.09-1.69l-11.8-18.37-6.05,11.14" transform="translate(-5601.2 -7646.81)"/><path class="cls-1" d="M5601.4,7683.22a1.75,1.75,0,0,0,.23,2c0.36,0.57,2,3.14,4.06,6.39a1.49,1.49,0,0,0,2.6-.06l4.91-9a1.77,1.77,0,0,0-.09-1.69l-5.65-8.71-6.05,11.14" transform="translate(-5601.2 -7646.81)"/><path class="cls-2" d="M5620.78,7649.33a1.77,1.77,0,0,0-1.44.89l-6.11,11.23a2,2,0,0,1,1.5-.94h28.4a1.69,1.69,0,0,0,1.41-.77l4.48-8.25a1.45,1.45,0,0,0-1.16-2.17h-6.64l-20.44,0" transform="translate(-5601.2 -7646.81)"/><path class="cls-2" d="M5629.82,7671.15h-20.9a1.77,1.77,0,0,0-1.44.89l-6.13,11.28h0a1.64,1.64,0,0,1,1.4-.75s19.88,0,20.85,0a1.74,1.74,0,0,0,1.42-.88l6.16-11.34a1.59,1.59,0,0,1-1.36.8m1.36-.8,0,0Z" transform="translate(-5601.2 -7646.81)"/><rect class="cls-3" width="48" height="48"/></svg>