<svg id="design" xmlns="http://www.w3.org/2000/svg" viewBox="0 0 48 48"><defs><style>.cls-1{fill:none;}.cls-2{fill:#fff;}</style></defs><title>museumtijdschrift-icon</title><rect class="cls-1" width="48" height="48"/><path class="cls-2" d="M5644.93,7911.36a7.48,7.48,0,0,0,4.11-1.3,1.91,1.91,0,0,0,1.92.93h0.57a1.76,1.76,0,0,0,1.87-1.8v-12.76a1.79,1.79,0,0,0-1.9-1.8h-1.14a1.79,1.79,0,0,0-1.9,1.8v9.63a4.4,4.4,0,0,1-2.8,1.16c-1.17,0-1.73-.31-1.73-2.07v-8.71a1.76,1.76,0,0,0-1.87-1.8h-1.17a1.79,1.79,0,0,0-1.9,1.8v9.17C5639,7909.21,5641.22,7911.36,5644.93,7911.36Z" transform="translate(-5613 -7888.03)"/><path class="cls-2" d="M5631.42,7900.47v8.71a1.79,1.79,0,0,0,1.9,1.8h1.13a1.79,1.79,0,0,0,1.9-1.8V7900c0-3.61-2.23-5.76-6-5.76a7.8,7.8,0,0,0-4.62,1.72,5.79,5.79,0,0,0-4.56-1.72,6.81,6.81,0,0,0-3.89,1.31,1.81,1.81,0,0,0-1.76-.94h-0.66a1.79,1.79,0,0,0-1.9,1.8v12.76a1.79,1.79,0,0,0,1.9,1.8h1.17a1.76,1.76,0,0,0,1.87-1.8v-9.6a4.07,4.07,0,0,1,2.55-1.18c1.17,0,1.73.31,1.73,2.07v8.71a1.76,1.76,0,0,0,1.87,1.8h1.17a1.79,1.79,0,0,0,1.9-1.8v-9.09a4.49,4.49,0,0,0-.05-0.61,4.11,4.11,0,0,1,2.57-1.08C5630.83,7898.4,5631.42,7898.72,5631.42,7900.47Z" transform="translate(-5613 -7888.03)"/><path class="cls-2" d="M5647.45,7912.69a7.8,7.8,0,0,0-4.62,1.72,5.79,5.79,0,0,0-4.56-1.72,6.8,6.8,0,0,0-3.89,1.31,1.81,1.81,0,0,0-1.76-.94H5632a1.77,1.77,0,0,0-1.9,1.8v12.76a1.79,1.79,0,0,0,1.9,1.8h1.17a1.76,1.76,0,0,0,1.87-1.8V7918a4.07,4.07,0,0,1,2.55-1.18c1.17,0,1.73.31,1.73,2.07v8.71a1.76,1.76,0,0,0,1.87,1.8h1.17a1.79,1.79,0,0,0,1.9-1.8v-9.09a4.45,4.45,0,0,0-.05-0.61,4.11,4.11,0,0,1,2.57-1.08c1.17,0,1.76.32,1.76,2.07v8.71a1.79,1.79,0,0,0,1.9,1.8h1.14a1.79,1.79,0,0,0,1.9-1.8v-9.17C5653.42,7914.84,5651.18,7912.69,5647.45,7912.69Z" transform="translate(-5613 -7888.03)"/><path class="cls-2" d="M5625.49,7913.07h-1.14a1.79,1.79,0,0,0-1.9,1.8v9.63a4.4,4.4,0,0,1-2.8,1.16c-1.17,0-1.73-.31-1.73-2.07v-8.71a1.76,1.76,0,0,0-1.87-1.8h-1.17a1.79,1.79,0,0,0-1.9,1.8V7924c0,3.61,2.22,5.76,5.93,5.76a7.48,7.48,0,0,0,4.11-1.3,1.91,1.91,0,0,0,1.91.93h0.57a1.76,1.76,0,0,0,1.87-1.8v-12.76A1.77,1.77,0,0,0,5625.49,7913.07Z" transform="translate(-5613 -7888.03)"/><path class="cls-2" d="M5656.24,7901h0a5.5,5.5,0,0,0,1.57.24c1.48,0,2.52-.83,2.52-2a2.28,2.28,0,0,0-1.81-2.1,1.06,1.06,0,0,1-.79-0.55c0-.25.19-0.37,0.57-0.37a3,3,0,0,1,.73.09,0.67,0.67,0,0,0,.86-0.46l0.06-.19a0.68,0.68,0,0,0,0-.53,0.66,0.66,0,0,0-.42-0.32,4.43,4.43,0,0,0-1.22-.17c-1.44,0-2.45.8-2.45,2a2.18,2.18,0,0,0,1.79,2.08,1,1,0,0,1,.81.57c0,0.16,0,.43-0.64.43a4,4,0,0,1-1.07-.17,0.64,0.64,0,0,0-.55,0,0.62,0.62,0,0,0-.3.42l-0.06.22A0.68,0.68,0,0,0,5656.24,7901Z" transform="translate(-5613 -7888.03)"/><path class="cls-2" d="M5658.21,7904.23a2.63,2.63,0,0,0-2.77,2.67v1.29a2.66,2.66,0,0,0,2.94,2.67,6.19,6.19,0,0,0,1.69-.26,0.7,0.7,0,0,0,.45-0.32,0.64,0.64,0,0,0,.05-0.5l-0.05-.23a0.65,0.65,0,0,0-.87-0.45l-0.12,0a5.51,5.51,0,0,1-1.15.14,1,1,0,0,1-1.09-1.08l3.2,0a0.52,0.52,0,0,0,.51-0.51v-0.76A2.67,2.67,0,0,0,5658.21,7904.23Zm-0.92,2.54a0.88,0.88,0,0,1,.93-0.94,0.86,0.86,0,0,1,.92.94h-1.85Z" transform="translate(-5613 -7888.03)"/><path class="cls-2" d="M5656.11,7903.1h4a0.35,0.35,0,1,0,0-.71h-4A0.35,0.35,0,1,0,5656.11,7903.1Z" transform="translate(-5613 -7888.03)"/></svg>