<svg xmlns="http://www.w3.org/2000/svg" xmlns:xlink="http://www.w3.org/1999/xlink"><defs><symbol viewBox="0 0 32 32" id="arrow-down"><path d="M15 4v20.063l-4.281-4.282-1.438 1.407 6 6 .719.718.719-.718 6-6-1.438-1.407L17 24.063V4h-2z" /></symbol><symbol viewBox="0 0 32 32" id="arrow-left"><path d="M10.813 9.281l-6 6-.72.719.72.719 6 6 1.406-1.438L7.938 17H28v-2H7.937l4.282-4.281-1.406-1.438z" /></symbol><symbol viewBox="0 0 32 32" id="arrow-right"><path d="M21.188 9.281L19.78 10.72 24.063 15H4v2h20.063l-4.282 4.281 1.407 1.438 6-6 .718-.719-.718-.719-6-6z" /></symbol><symbol viewBox="0 0 32 32" id="arrow-up"><path d="M16 4.094l-.719.718-6 6 1.438 1.407L15 7.938V28h2V7.937l4.281 4.282 1.438-1.406-6-6-.719-.72z" /></symbol><symbol viewBox="0 0 32 32" id="calendar"><path d="M9 5v1H5v22h22V6h-4V5h-2v1H11V5H9zM7 8h2v1h2V8h10v1h2V8h2v2H7V8zm0 4h18v14H7V12zm13.281 2.281L15 19.562l-2.281-2.28-1.438 1.437 3 3 .719.687.719-.687 6-6-1.438-1.438z" /></symbol><symbol viewBox="0 0 32 32" id="check-circle"><path d="M16 3C8.8 3 3 8.8 3 16s5.8 13 13 13 13-5.8 13-13c0-1.4-.188-2.794-.688-4.094L26.688 13.5c.2.8.313 1.6.313 2.5 0 6.1-4.9 11-11 11S5 22.1 5 16 9.9 5 16 5c3 0 5.694 1.194 7.594 3.094L25 6.688C22.7 4.388 19.5 3 16 3zm11.281 4.281L16 18.563l-4.281-4.282-1.438 1.438 5 5 .719.687.719-.687 12-12L27.28 7.28z" /></symbol><symbol viewBox="0 0 32 32" id="close-circle"><path d="M16 3C8.832 3 3 8.832 3 16s5.832 13 13 13 13-5.832 13-13S23.168 3 16 3zm0 2c6.087 0 11 4.913 11 11s-4.913 11-11 11S5 22.087 5 16 9.913 5 16 5zm-3.781 5.781L10.78 12.22 14.562 16l-3.78 3.781 1.437 1.438L16 17.437l3.781 3.782 1.438-1.438L17.437 16l3.782-3.781-1.438-1.438L16 14.562l-3.781-3.78z" /></symbol><symbol viewBox="0 0 32 32" id="comments"><path d="M2 5v16h4v5.094l1.625-1.313L12.344 21H22V5H2zm2 2h16v12h-8.344l-.281.219L8 21.906V19H4V7zm20 2v2h4v12h-4v2.906L20.344 23h-7.5l-2.5 2h9.312L26 30.094V25h4V9h-6z" /></symbol><symbol viewBox="0 0 32 32" id="email"><path d="M3 8v18h26V8H3zm4.313 2h17.375L16 15.781 7.312 10zM5 10.875l10.438 6.969.562.343.563-.343L27 10.875V24H5V10.875z" /></symbol><symbol viewBox="0 0 32 32" id="external-link"><path d="M18 5v2h5.563L11.28 19.281l1.438 1.438L25 8.437V14h2V5h-9zM5 9v18h18V14l-2 2v9H7V11h9l2-2H5z" /></symbol><symbol viewBox="0 0 32 32" id="info-circle"><path d="M16 3C8.832 3 3 8.832 3 16s5.832 13 13 13 13-5.832 13-13S23.168 3 16 3zm0 2c6.087 0 11 4.913 11 11s-4.913 11-11 11S5 22.087 5 16 9.913 5 16 5zm-1 5v2h2v-2h-2zm0 4v8h2v-8h-2z" /></symbol><symbol viewBox="0 0 32 32" id="pdf"><path d="M6 3v26h20V3H6zm2 2h16v22H8V5zm7.406 5.344a1.428 1.428 0 0 0-.906.312c-.254.215-.369.482-.438.75-.137.538-.097 1.099.032 1.719.15.726.587 1.6.937 2.438-.18.763-.225 1.435-.5 2.218-.236.673-.536 1.059-.812 1.657-.63.237-1.38.379-1.875.687-.534.332-1.002.7-1.281 1.219-.28.518-.248 1.252.124 1.781a1.6 1.6 0 0 0 .75.625c.324.128.675.133.97.031.588-.203 1.006-.656 1.405-1.187.37-.492.635-1.328.97-2 .504-.168.868-.38 1.405-.5.564-.126.94-.065 1.47-.125.227.259.419.67.655.875.477.413 1 .743 1.625.781.626.038 1.25-.352 1.594-.938h.032v-.03c.151-.268.256-.554.25-.876-.007-.322-.17-.655-.375-.875-.411-.44-.934-.55-1.5-.625-.436-.057-1.046.099-1.563.125-.452-.596-.903-1.046-1.313-1.812-.22-.414-.282-.767-.468-1.188.143-.679.43-1.436.468-2.031.048-.718.02-1.339-.187-1.906a1.828 1.828 0 0 0-.531-.781 1.481 1.481 0 0 0-.907-.344h-.03zm.656 7.406c.181.316.402.517.594.813-.282.05-.496-.002-.781.062-.048.01-.077.051-.125.063.057-.155.132-.25.188-.407.064-.183.064-.347.124-.531zm3.688 2.031c.337.044.455.106.5.125-.007.016.012.01 0 .032-.123.205-.139.192-.219.187-.067-.004-.32-.142-.562-.313.07.006.217-.04.281-.03zm-7 1.563c-.055.081-.102.272-.156.343-.305.406-.586.596-.656.625-.013-.013.02-.001 0-.03h-.032c-.103-.147-.072-.085 0-.22.073-.134.31-.402.719-.656.03-.018.094-.044.125-.062z" /></symbol><symbol viewBox="0 0 32 32" id="phone"><path d="M8.656 3a2.36 2.36 0 0 0-1.469.531l-.062.031-.031.032-3.125 3.219.031.03a3.135 3.135 0 0 0-.844 3.376c.002.006-.002.025 0 .031.847 2.428 3.017 7.11 7.25 11.344 4.25 4.25 8.997 6.331 11.344 7.25h.031a3.592 3.592 0 0 0 3.469-.688l.031-.031.032-.031L28.405 25c.83-.83.83-2.264 0-3.094l-4.062-4.062-.032-.063c-.83-.83-2.295-.83-3.125 0l-.03.032-1.97 1.968a16.147 16.147 0 0 1-4.093-2.812c-1.636-1.562-2.474-3.358-2.781-4.063l2-2c.841-.842.854-2.236-.032-3.062l.031-.032-.093-.093-4-4.125-.031-.031-.063-.032A2.36 2.36 0 0 0 8.656 3zm0 2c.074 0 .147.036.219.094l4 4.093.063.063.03.031c-.007-.006.061.096-.062.219l-2.5 2.5-.469.438.22.624s1.15 3.073 3.562 5.376l.219.187C16.26 20.747 19 21.906 19 21.906l.625.282.469-.47 2.5-2.5c.17-.17.142-.17.312 0L27 23.314c.17.17.17.11 0 .28l-3.063 3.063c-.461.396-.947.476-1.53.282-2.268-.89-6.67-2.827-10.595-6.75C7.857 16.23 5.79 11.74 5.032 9.563c-.153-.407-.043-1.009.312-1.313l.031-.031.031-.031 3.032-3.094A.361.361 0 0 1 8.655 5z" /></symbol><symbol viewBox="0 0 32 32" id="plus"><path d="M15 5v10H5v2h10v10h2V17h10v-2H17V5h-2z" /></symbol><symbol viewBox="0 0 32 32" id="plus-circle"><path d="M16 3C8.832 3 3 8.832 3 16s5.832 13 13 13 13-5.832 13-13S23.168 3 16 3zm0 2c6.087 0 11 4.913 11 11s-4.913 11-11 11S5 22.087 5 16 9.913 5 16 5zm-1 5v5h-5v2h5v5h2v-5h5v-2h-5v-5h-2z" /></symbol><symbol viewBox="0 0 32 32" id="user"><path d="M16 5c-3.854 0-7 3.146-7 7a7.026 7.026 0 0 0 3.094 5.813C8.527 19.343 6 22.88 6 27h2c0-4.43 3.57-8 8-8s8 3.57 8 8h2c0-4.119-2.527-7.658-6.094-9.188A7.026 7.026 0 0 0 23 12c0-3.854-3.146-7-7-7zm0 2c2.773 0 5 2.227 5 5s-2.227 5-5 5-5-2.227-5-5 2.227-5 5-5z" /></symbol></defs></svg>