<svg id="design" xmlns="http://www.w3.org/2000/svg" viewBox="0 0 183.85 48"><defs><style>.cls-1{fill:#280b6e;}.cls-2{fill:#00c4f4;}</style></defs><title>logo</title><path class="cls-1" d="M5991.74,6134.83h0a10.15,10.15,0,0,0-6.78,3v-2.52h-7.27v35.05l7.27-1.78v-8.88a7.94,7.94,0,0,0,6.26,2.82h0c4.91,0,10.68-3.6,10.82-14.14,0.06-4.63-1.19-8.35-3.61-10.77A9.43,9.43,0,0,0,5991.74,6134.83Zm-2.3,21.58h0a5.93,5.93,0,0,1-4.49-2.29v-10.56s2.12-2.62,4.78-2.62h0a4.33,4.33,0,0,1,3,1.41c1.33,1.33,2,3.6,2,6.41C5994.67,6152.23,5993.26,6156.4,5989.44,6156.41Z" transform="translate(-5940.02 -6122.36)"/><path class="cls-1" d="M6032.52,6140.94a12,12,0,0,1,5.72,1.79l2.22-4.91a12.63,12.63,0,0,0-8.54-3c-9.32,0-12.8,7-12.8,14.24,0,5.67,2.91,13.45,12.56,13.45a13.9,13.9,0,0,0,8.78-3l-2.21-4.89a12.19,12.19,0,0,1-5.73,1.77c-5,0-6.13-5.28-6.13-7.94S6027.28,6140.94,6032.52,6140.94Z" transform="translate(-5940.02 -6122.36)"/><path class="cls-1" d="M6089.12,6137.65a7.94,7.94,0,0,0-6.26-2.82h0c-4.91,0-10.68,3.6-10.82,14.15-0.06,4.63,1.19,8.35,3.61,10.77a9.43,9.43,0,0,0,6.7,2.79h0a10.14,10.14,0,0,0,6.77-3V6162h7.27v-35.28l-7.27,1.78v9.11Zm0,16.2c-0.09.1-2.33,2.55-4.78,2.56h0a4.33,4.33,0,0,1-3-1.41c-1.33-1.33-2-3.6-2-6.41,0-3.47,1.45-7.64,5.28-7.66h0a5.8,5.8,0,0,1,4.49,2.28v10.63Z" transform="translate(-5940.02 -6122.36)"/><path class="cls-1" d="M6123.8,6151.44s1.59-16.61-11.27-16.61c-8.87,0-11.33,8.58-11.23,14.24s3.14,13.45,12.8,13.45a13.56,13.56,0,0,0,7.94-2.27l-1.86-5.17a14.63,14.63,0,0,1-5.35,1.33c-6.21,0-6-5.12-6-5.12Zm-15.22-5.32s-0.24-5.17,3.88-5.17,4.06,5.17,4.06,5.17h-7.93Z" transform="translate(-5940.02 -6122.36)"/><polygon class="cls-1" points="12.17 33.58 19.44 33.58 19.44 39.68 32.73 39.68 32.73 33.58 19.44 33.58 19.44 26.95 27.88 26.95 27.88 20.84 19.44 20.84 19.44 13.47 32.73 13.47 32.73 7.42 12.17 7.42 12.17 33.58"/><polygon class="cls-1" points="66.93 8.92 74.2 7.14 74.2 0 66.93 1.78 66.93 8.92"/><rect class="cls-2" y="33.54" width="7.26" height="6.15"/><polygon class="cls-1" points="66.93 39.69 74.2 39.69 74.2 12.95 66.93 14.72 66.93 39.69"/><path class="cls-1" d="M6055.86,6134.81c-6.88,0-12.46,5.7-12.46,13.86s5.58,13.86,12.46,13.86,12.46-5.51,12.46-13.86S6062.74,6134.81,6055.86,6134.81Zm0,21.61c-2.75,0-5-3.47-5-7.75s2.23-7.75,5-7.75,5,3.47,5,7.75S6058.62,6156.42,6055.86,6156.42Z" transform="translate(-5940.02 -6122.36)"/></svg>