<svg id="design" xmlns="http://www.w3.org/2000/svg" xmlns:xlink="http://www.w3.org/1999/xlink" viewBox="0 0 96 96" stroke-linejoin="round"><defs><style>.cls-1{fill:#00c4f4;opacity:0.1;}.cls-2,.cls-3{fill:none;}.cls-2{stroke-miterlimit:10;stroke-width:2px;stroke:url(#Secondary);}</style><linearGradient id="Secondary" x1="11645.89" y1="5544.46" x2="11712.18" y2="5610.75" gradientTransform="matrix(1, 0, 0, -1, -352, 13688.56)" gradientUnits="userSpaceOnUse"><stop offset="0" stop-color="#001ddb"/><stop offset="1" stop-color="#00c4f4"/></linearGradient></defs><title>customization-secondary</title><path id="_Pad_" data-name="&lt;Pad&gt;" class="cls-1" d="M11362.42,8140.9h-70.2a0.32,0.32,0,0,1-.3-0.3v-12.75a0.32,0.32,0,0,1,.3-0.3h70.2a0.32,0.32,0,0,1,.3.3v12.75A0.24,0.24,0,0,1,11362.42,8140.9Z" transform="translate(-11279.32 -8059.75)"/><circle id="_Pad_2" data-name="&lt;Pad&gt;" class="cls-1" cx="57.75" cy="37.05" r="4.35"/><path id="_Samengesteld_pad_" data-name="&lt;Samengesteld pad&gt;" class="cls-2" d="M11362.42,8140.9h-70.2a0.32,0.32,0,0,1-.3-0.3v-12.75a0.32,0.32,0,0,1,.3-0.3h70.2a0.32,0.32,0,0,1,.3.3v12.75A0.24,0.24,0,0,1,11362.42,8140.9Zm-63.75-7.8v-5.4m7.05,5.4v-5.4m7,0v5.4m7.2-5.4v5.4m7-5.4v5.4m7,0v-5.4m7.05,5.4v-5.4m7,0v5.4m7-5.4v5.4m-5.25-10V8087.5a0.32,0.32,0,0,0-.3-0.3h-46.2a0.32,0.32,0,0,0-.3.3v35.55m47.4-5.7h-47.25m17.7-.15a9.89,9.89,0,0,0-9.9-9.9,9.73,9.73,0,0,0-7.8,3.9m32.1,6a9.89,9.89,0,0,0-9.9-9.9,9.73,9.73,0,0,0-7.8,3.9m19.35-18.75a4.35,4.35,0,1,0,4.35,4.35A4.35,4.35,0,0,0,11337.07,8092.45Zm9.15,19.8h-8.4m-40.35,8.1v2.7m0-10.35v2.7m0-10.35v2.7m0-10.35v2.7m0-10.35v2.7m0-10.2v2.7m0-10.35v2.7m58.5,43.05v2.7m0-10.35v2.7m0-10.35v2.7m0-10.35v2.7m0-10.35v2.7m0-10.2v2.7m0-10.35v2.7m-49.05,2.1h40.2m-3,4.5,4.2-4.65-4.2-4.5m-34.2.15-4.2,4.5,4.2,4.65" transform="translate(-11279.32 -8059.75)"/><rect class="cls-3" width="96" height="96"/></svg>
