<svg id="design" xmlns="http://www.w3.org/2000/svg" xmlns:xlink="http://www.w3.org/1999/xlink" viewBox="0 0 96 96" stroke-linejoin="round"><defs><style>.cls-1{fill:#00c4f4;opacity:0.1;}.cls-2,.cls-3{fill:none;}.cls-2{stroke-miterlimit:10;stroke-width:2px;stroke:url(#Secondary);}</style><linearGradient id="Secondary" x1="10865.92" y1="6539.87" x2="10925.1" y2="6599.05" gradientTransform="matrix(1, 0, 0, -1, 0, 13736.72)" gradientUnits="userSpaceOnUse"><stop offset="0" stop-color="#001ddb"/><stop offset="1" stop-color="#00c4f4"/></linearGradient></defs><title>design</title><rect id="_Pad_" data-name="&lt;Pad&gt;" class="cls-1" x="23.1" y="34.05" width="7.2" height="23.25"/><path id="_Pad_2" data-name="&lt;Pad&gt;" class="cls-1" d="M10919.8,7154.67h-5c-0.05,0-.11.11-0.11,0.34v18.11h5.25v-18.23A0.22,0.22,0,0,0,10919.8,7154.67Z" transform="translate(-10847.31 -7111.62)"/><path id="_Pad_3" data-name="&lt;Pad&gt;" class="cls-1" d="M10930.41,7183.92h-70.2a0.32,0.32,0,0,1-.3-0.3v6a0.32,0.32,0,0,0,.3.3h70.2a0.32,0.32,0,0,0,.3-0.3v-6A0.32,0.32,0,0,1,10930.41,7183.92Z" transform="translate(-10847.31 -7111.62)"/><path id="_Samengesteld_pad_" data-name="&lt;Samengesteld pad&gt;" class="cls-2" d="M10886.91,7173.12v-36.75l4.35-6.75a0.43,0.43,0,0,1,.75,0l4.2,6.75v36.75m-9.75-35.1h10.05m-18.3,35.1v-33.45l-4.2-4.8-4.2,4.8v33.45m4.2-42.15v5.4m4.35,32.55h-8.7m0-23h8.7m52.35,43.35v-12.75a0.32,0.32,0,0,0-.3-0.3h-70.2a0.32,0.32,0,0,0-.3.3v12.75a0.32,0.32,0,0,0,.3.3h70.2A0.32,0.32,0,0,0,10930.71,7189.32Zm-64-7.65v-5.4m7,5.4v-5.4m7.2,0v5.4m7-5.4v5.4m7.05-5.4v5.4m7,0v-5.4m7.05,5.4v-5.4m7,0v5.4m7-5.4v5.4m-10.5-38.4v-13m0,13a1.95,1.95,0,1,0,2,1.95A1.89,1.89,0,0,0,10912.71,7143.27Zm7.2,29.85V7155a0.32,0.32,0,0,0-.3-0.3h-13.8a0.32,0.32,0,0,0-.3.3v18.15m6.45-43.35h-2.1a29.06,29.06,0,0,1-5.4,10.8l3,13.95m10.65,0.15,2.85-13.95a29.06,29.06,0,0,1-5.4-10.8h-2.1" transform="translate(-10847.31 -7111.62)"/><rect class="cls-3" width="96" height="96"/></svg>
