<svg id="design" xmlns="http://www.w3.org/2000/svg" xmlns:xlink="http://www.w3.org/1999/xlink" viewBox="0 0 96 96" stroke-linejoin="round"><defs><style>.cls-1{fill:#00c4f4;opacity:0.1;}.cls-2,.cls-3{fill:none;}.cls-2{stroke-miterlimit:10;stroke-width:2px;stroke:url(#Secondary);}</style><linearGradient id="Secondary" x1="10866.12" y1="6273.88" x2="10922.4" y2="6330.15" gradientTransform="matrix(1, 0, 0, -1, 0, 13736.56)" gradientUnits="userSpaceOnUse"><stop offset="0" stop-color="#001ddb"/><stop offset="1" stop-color="#00c4f4"/></linearGradient></defs><title>tools-secondary</title><path id="_Pad_" data-name="&lt;Pad&gt;" class="cls-1" d="M10906.26,7413a11.57,11.57,0,0,0-1.5-3.75l2.4-3.6-2.85-2.7-3.6,2.4a11.57,11.57,0,0,0-3.75-1.5l-0.75-4.2h-3.9l-1,4a11.57,11.57,0,0,0-3.75,1.5l-3.6-2.25-2.85,2.85,2.4,3.6a11.57,11.57,0,0,0-1.5,3.75l-4.35.6v2.1h10a6.45,6.45,0,1,1,12.9,0h10.65v-2.25Z" transform="translate(-10847.31 -7382.29)"/><path id="_Pad_2" data-name="&lt;Pad&gt;" class="cls-1" d="M10930.56,7415h-14.1l-4,4.8v36.45a0.32,0.32,0,0,1-.3.3H10865v4.2a0.32,0.32,0,0,0,.3.3h58.8a0.32,0.32,0,0,0,.3-0.3v-37.95l6.15-7.8h0Z" transform="translate(-10847.31 -7382.29)"/><path id="_Pad_3" data-name="&lt;Pad&gt;" class="cls-1" d="M10869.66,7412.14h-9.45l-0.15.15,5,7.35h10.2Z" transform="translate(-10847.31 -7382.29)"/><path id="_Samengesteld_pad_" data-name="&lt;Samengesteld pad&gt;" class="cls-2" d="M10877.61,7415.89v-2.1l4.35-.75a11.57,11.57,0,0,1,1.5-3.75l-2.4-3.6,2.85-2.85,3.6,2.25a11.57,11.57,0,0,1,3.75-1.5l1-4.05h3.9l0.75,4.2a11.57,11.57,0,0,1,3.75,1.5l3.6-2.4,2.85,2.85-2.4,3.6a11.57,11.57,0,0,1,1.5,3.75l4.95,0.75V7416m-10.65-.15a6.45,6.45,0,1,0-12.9,0m-5.25,25.05,4.5,4.5,10-10.05m-31.95-15.75v41.1a0.32,0.32,0,0,0,.3.3h58.8a0.32,0.32,0,0,0,.3-0.3v-37.95l6.15-7.65h-13.35l-4.2,4.65h-48v-0.15Zm10.2,0-5.55-7.5h-9.45l-0.15.15,5,7.35m48,41.4v-37.8m3.45,0h5.1m-20.25,22.05a11.24,11.24,0,0,0,.75-2.4m-5.4,8.1a8.7,8.7,0,0,0,1.8-1.5m-8.85,3.6a13.21,13.21,0,0,0,2.55-.3m-9.6-1.8a9.56,9.56,0,0,0,2.1,1.2m-6.75-6.9a9.56,9.56,0,0,0,1.2,2.1m-2-9.45a13.21,13.21,0,0,0-.3,2.55m3.75-9a15.89,15.89,0,0,0-1.5,1.8m7.95-5.25a14.74,14.74,0,0,0-2.4.75m17.55,11.7a12.58,12.58,0,0,0-12.6-12.6" transform="translate(-10847.31 -7382.29)"/><rect class="cls-3" width="96" height="96"/></svg>
