<svg id="design" xmlns="http://www.w3.org/2000/svg" xmlns:xlink="http://www.w3.org/1999/xlink" viewBox="0 0 96 96" stroke-linejoin="round"><defs><style>.cls-1{fill:#9d2cff;opacity:0.1;}.cls-2,.cls-3{fill:none;}.cls-2{stroke-miterlimit:10;stroke-width:2px;stroke:url(#Purple_gradient);}</style><linearGradient id="Purple_gradient" x1="6054.73" y1="6618.39" x2="6101.64" y2="6665.3" gradientTransform="matrix(1, 0, 0, -1, 0, 13736.56)" gradientUnits="userSpaceOnUse"><stop offset="0" stop-color="#280b6e"/><stop offset="1" stop-color="#9d2cff"/></linearGradient></defs><title>happy-users</title><path id="_Pad_" data-name="&lt;Pad&gt;" class="cls-1" d="M6098.5,7076.11a15.56,15.56,0,0,0-12.45,6.15,15.75,15.75,0,0,1,25.2,12.6,15.56,15.56,0,0,1-3.15,9.45,15.56,15.56,0,0,0,6.15-12.45A15.84,15.84,0,0,0,6098.5,7076.11Z" transform="translate(-6031 -7047.76)"/><path id="_Pad_2" data-name="&lt;Pad&gt;" class="cls-1" d="M6079.3,7095.76a15.5,15.5,0,0,0-12.15,6,14.88,14.88,0,0,1,9.15-3,15.11,15.11,0,0,1,15.15,15.15,15.89,15.89,0,0,1-3,9.15,15.27,15.27,0,0,0,6-12.15A15.11,15.11,0,0,0,6079.3,7095.76Z" transform="translate(-6031 -7047.76)"/><path id="_Samengesteld_pad_" data-name="&lt;Samengesteld pad&gt;" class="cls-2" d="M6082.75,7091.71a15.75,15.75,0,1,1,15.75,15.75m-7.2-10.65H6106m-10.2,0v3.9a2.69,2.69,0,0,0,2.7,2.7h0a2.69,2.69,0,0,0,2.7-2.7v-3.9m-6.9-7.8h-2.55m13.05,0h-2.55m-26.4,2.85a16.6,16.6,0,0,0-15.3-9.75,16.8,16.8,0,0,0,0,33.6m1.35-11.85-8.4.9a6.34,6.34,0,0,0,6.3,6.3m-2.25-16.65a2.53,2.53,0,0,0-2.55-2.55,2.48,2.48,0,0,0-1.8.75,2.77,2.77,0,0,0-1.8-.75,2.53,2.53,0,0,0-2.55,2.55,2.48,2.48,0,0,0,.75,1.8l3.75,3.75,3.75-3.75,0.15-.15A6.38,6.38,0,0,0,6057.55,7094.41Zm14.25,0a2.53,2.53,0,0,0-2.55-2.55,2.48,2.48,0,0,0-1.8.75,2.77,2.77,0,0,0-1.8-.75,2.53,2.53,0,0,0-2.55,2.55,2.48,2.48,0,0,0,.75,1.8l3.75,3.75,3.75-3.75,0.15-.15A5.39,5.39,0,0,0,6071.8,7094.41Zm7.5,1.35a15.15,15.15,0,1,0,15.15,15.15A15.11,15.11,0,0,0,6079.3,7095.76Zm-2,11.4a3.61,3.61,0,0,0-2.7-1.05,4.31,4.31,0,0,0-2.7,1.05m15,0a3.61,3.61,0,0,0-2.7-1.05,4.31,4.31,0,0,0-2.7,1.05m-9,7.2a6.75,6.75,0,0,0,13.5,0h-13.5Zm5.7-41.1v-7.65m9.9,1.65-2.7,7.2m-25.8-2.1,4.95,5.85m6.45-3.75-2.7-7.2" transform="translate(-6031 -7047.76)"/><rect class="cls-3" width="96" height="96"/></svg>
