<svg id="design" xmlns="http://www.w3.org/2000/svg" xmlns:xlink="http://www.w3.org/1999/xlink" viewBox="0 0 96 96" stroke-linejoin="round"><defs><style>.cls-1{fill:#9d2cff;opacity:0.1;}.cls-2,.cls-3{fill:none;}.cls-2{stroke-miterlimit:10;stroke-width:2px;stroke:url(#Purple_gradient);}</style><linearGradient id="Purple_gradient" x1="7601.23" y1="6543.97" x2="7660.73" y2="6603.48" gradientTransform="matrix(1, 0, 0, -1, 0, 13736.56)" gradientUnits="userSpaceOnUse"><stop offset="0" stop-color="#280b6e"/><stop offset="1" stop-color="#9d2cff"/></linearGradient></defs><title>webapps</title><path id="_Pad_" data-name="&lt;Pad&gt;" class="cls-1" d="M7662.09,7189.69h-61.8a1.76,1.76,0,0,1-1.65-1.35l-0.45-3.75h27.45l1.05,1.5h7.5l1.2-1.5h28.8l-0.6,3.75A1.6,1.6,0,0,1,7662.09,7189.69Z" transform="translate(-7583.19 -7110.34)"/><rect id="_Pad_2" data-name="&lt;Pad&gt;" class="cls-1" x="25.05" y="16.65" width="45" height="7.95"/><path id="_Samengesteld_pad_" data-name="&lt;Samengesteld pad&gt;" class="cls-2" d="M7662.09,7189.69h-61.8a1.76,1.76,0,0,1-1.65-1.35l-0.45-3.75h27.45l1.05,1.5h7.5l1.2-1.5h28.8l-0.6,3.75A1.6,1.6,0,0,1,7662.09,7189.69Zm-57.75-43.8h-3.15a0.48,0.48,0,0,0-.45.45v38.4m60.9-.15v-38.25a0.48,0.48,0,0,0-.45-0.45H7657m-50.1,32.7h47.85m-1.2-6.15v-45.15a0.32,0.32,0,0,0-.3-0.3h-44.85a0.32,0.32,0,0,0-.3.3v45.15a0.32,0.32,0,0,0,.3.3h44.85A0.32,0.32,0,0,0,7653.54,7172.44Zm0-37.35h-46.65m5.4-4.35h2.85m1.8,0h2.85m1.8,0h2.85m-10.8,12.6h2.85m3.6,0h16.2m8.1,0h-4.95m-25.8,5.7h2.85m3.3,0h7m3.45,0h18.45m-35.1,5.7h2.85m3.75,0H7637m-20.55,5.55h-2.85m17.25,0h-10.95m14.1,0h9m-26.55,5.7h-2.85m25.65,0h-19.2m24.45,0h-3.6" transform="translate(-7583.19 -7110.34)"/><rect class="cls-3" width="96" height="96"/></svg>
