<svg id="design" xmlns="http://www.w3.org/2000/svg" xmlns:xlink="http://www.w3.org/1999/xlink" viewBox="0 0 96 96" stroke-linejoin="round"><defs><style>.cls-1{fill:#9d2cff;opacity:0.1;}.cls-2,.cls-3{fill:none;}.cls-2{stroke-miterlimit:10;stroke-width:2px;stroke:url(#Purple_gradient);}</style><linearGradient id="Purple_gradient" x1="7606.9" y1="6824.84" x2="7657.39" y2="6875.33" gradientTransform="matrix(1, 0, 0, -1, 0, 13736.56)" gradientUnits="userSpaceOnUse"><stop offset="0" stop-color="#280b6e"/><stop offset="1" stop-color="#9d2cff"/></linearGradient></defs><title>responsive</title><rect id="_Pad_" data-name="&lt;Pad&gt;" class="cls-1" x="60.15" y="44.4" width="21.3" height="20.55"/><path id="_Samengesteld_pad_" data-name="&lt;Samengesteld pad&gt;" class="cls-2" d="M7664.64,6909.78a1.73,1.73,0,0,1-1.8,1.8h-17.7a1.73,1.73,0,0,1-1.8-1.8v-32.4a1.73,1.73,0,0,1,1.8-1.8h17.7a1.73,1.73,0,0,1,1.8,1.8v32.4Zm-21.3-25.65h21.3m-7.2-4.2h-6.9m-7.2,24.75h21.3m-5.55-33v-6.6a1.5,1.5,0,0,0-1.5-1.5h-58.5a1.5,1.5,0,0,0-1.5,1.5v35.4a1.5,1.5,0,0,0,1.5,1.5h40.5m0-8.4h-41.85m15.3,7.5v10.5m-5.4,0h31.95m-36.15-38.85h3.75m4.5,0h3.75m4.35,0h3.75m4.5,0h3.75m4.5,0H7640m-36.6,6h3.75m4.5,0h3.75m4.35,0h3.75m4.5,0h3.75m4.5,0H7640m-36.6,6h3.75m4.5,0h3.75m4.35,0h3.75m4.5,0h3.75m4.5,0H7640m8.25,5.4H7652m4.5,0h3.75m-12,6H7652m4.5,0h3.75" transform="translate(-7583.19 -6839.58)"/><rect class="cls-3" width="96" height="96"/><rect class="cls-1" x="14.55" y="54" width="41.85" height="8.7"/></svg>
