<svg id="design" xmlns="http://www.w3.org/2000/svg" xmlns:xlink="http://www.w3.org/1999/xlink" viewBox="0 0 96 96" stroke-linejoin="round"><defs><style>.cls-1{fill:#00c4f4;opacity:0.1;}.cls-2,.cls-3{fill:none;}.cls-2{stroke-miterlimit:10;stroke-width:2px;stroke:url(#Secondary);}</style><linearGradient id="Secondary" x1="11390.68" y1="6544.46" x2="11456.1" y2="6609.89" gradientTransform="matrix(1, 0, 0, -1, 0, 13736.72)" gradientUnits="userSpaceOnUse"><stop offset="0" stop-color="#001ddb"/><stop offset="1" stop-color="#00c4f4"/></linearGradient></defs><title>development-secondary</title><g id="_Groep_" data-name="&lt;Groep&gt;"><circle id="_Pad_" data-name="&lt;Pad&gt;" class="cls-1" cx="48.3" cy="53.4" r="4.95"/><path id="_Pad_2" data-name="&lt;Pad&gt;" class="cls-1" d="M11455,7138.62h-63.45a0.32,0.32,0,0,1-.3-0.3V7128a0.32,0.32,0,0,1,.3-0.3H11455a0.32,0.32,0,0,1,.3.3v10.35A0.32,0.32,0,0,1,11455,7138.62Z" transform="translate(-11375.31 -7111.62)"/><path id="_Samengesteld_pad_" data-name="&lt;Samengesteld pad&gt;" class="cls-2" d="M11455.11,7191.72h-63.45a0.32,0.32,0,0,1-.3-0.3v-63.75a0.32,0.32,0,0,1,.3-0.3h63.45a0.32,0.32,0,0,1,.3.3v63.75A0.32,0.32,0,0,1,11455.11,7191.72Zm-63.75-53.1h64.05m-54.15-6.15h-3.9m6.6,0h3.9m6.6,0h-3.9m-4.65,17.85h-6.6m48.75,0h-8m-33.6,8h-7.2m45,0h7.5m-52.5,8h3.9m41,0h5.55m-50.4,7.95h7.2m44.25,0h-9.45m-38.1,7.95h-3.9m9.15,0h6.75m31.65,0h-9.3m3.15-15.3v-3.6l-5.85-.9a10.07,10.07,0,0,0-1.5-3.45l3.45-4.65-2.55-2.55-4.65,3.45a14.15,14.15,0,0,0-3.45-1.5l-0.9-5.85h-3.6l-0.9,5.85a13.76,13.76,0,0,0-3.45,1.35l-4.5-3.45-2.55,2.55,3.45,4.65a14.15,14.15,0,0,0-1.5,3.45l-5.85.9v3.6l5.85,0.9a13.76,13.76,0,0,0,1.35,3.45l-3.45,4.65,2.55,2.55,4.65-3.45a14.15,14.15,0,0,0,3.45,1.5l0.9,5.85h3.6l0.9-5.85a13.76,13.76,0,0,0,3.45-1.35l4.65,3.45,2.55-2.55-3.45-4.65a14.15,14.15,0,0,0,1.5-3.45Zm-17.1-7.05a5.61,5.61,0,0,0-3.75,1.5,5.33,5.33,0,0,0-1.5,3.75,5.61,5.61,0,0,0,1.5,3.75,5.33,5.33,0,0,0,3.75,1.5,5.61,5.61,0,0,0,3.75-1.5,5.33,5.33,0,0,0,1.5-3.75" transform="translate(-11375.31 -7111.62)"/></g><rect class="cls-3" width="96" height="96"/></svg>
