<svg id="design" xmlns="http://www.w3.org/2000/svg" xmlns:xlink="http://www.w3.org/1999/xlink" viewBox="0 0 96 96" stroke-linejoin="round"><defs><style>.cls-1{fill:#00c4f4;opacity:0.1;}.cls-2,.cls-3{fill:none;}.cls-2{stroke-miterlimit:10;stroke-width:2px;stroke:url(#Secondary);}</style><linearGradient id="Secondary" x1="11301.06" y1="5651.31" x2="11357.19" y2="5707.44" gradientTransform="matrix(1, 0, 0, -1, 352, 13784.56)" gradientUnits="userSpaceOnUse"><stop offset="0" stop-color="#001ddb"/><stop offset="1" stop-color="#00c4f4"/></linearGradient></defs><title>fast-scalable-secondary</title><path id="_Pad_" data-name="&lt;Pad&gt;" class="cls-1" d="M11709.32,8080.91a5.61,5.61,0,0,1-1.5,3.75,5.33,5.33,0,0,1-3.75,1.5,5.61,5.61,0,0,1-3.75-1.5,5.33,5.33,0,0,1-1.5-3.75,5.61,5.61,0,0,1,1.5-3.75,5.33,5.33,0,0,1,3.75-1.5,5.61,5.61,0,0,1,3.75,1.5A5.92,5.92,0,0,1,11709.32,8080.91Z" transform="translate(-11631.32 -8059.76)"/><path id="_Pad_2" data-name="&lt;Pad&gt;" class="cls-1" d="M11678.87,8077.31l-2.25,1.35a15.21,15.21,0,0,1,6.3,12.3v31.8h4.5v-31.95A14.4,14.4,0,0,0,11678.87,8077.31Z" transform="translate(-11631.32 -8059.76)"/><path id="_Pad_3" data-name="&lt;Pad&gt;" class="cls-1" d="M11694,8130.26v5.4a5,5,0,0,0,2.7,4.35,4.67,4.67,0,0,0,2.7-4.35v-5.4h-5.4Z" transform="translate(-11631.32 -8059.76)"/><path id="_Pad_4" data-name="&lt;Pad&gt;" class="cls-1" d="M11676.17,8130.26v5.4a5,5,0,0,0,2.7,4.35,4.67,4.67,0,0,0,2.7-4.35v-5.4h-5.4Z" transform="translate(-11631.32 -8059.76)"/><path id="_Pad_5" data-name="&lt;Pad&gt;" class="cls-1" d="M11658.47,8130.26v5.4a5,5,0,0,0,2.7,4.35,4.67,4.67,0,0,0,2.7-4.35v-5.4h-5.4Z" transform="translate(-11631.32 -8059.76)"/><circle id="_Pad_6" data-name="&lt;Pad&gt;" class="cls-1" cx="47.7" cy="35.55" r="3.45"/><path id="_Samengesteld_pad_" data-name="&lt;Samengesteld pad&gt;" class="cls-2" d="M11709.32,8080.91a5.61,5.61,0,0,1-1.5,3.75,5.33,5.33,0,0,1-3.75,1.5,5.61,5.61,0,0,1-3.75-1.5,5.33,5.33,0,0,1-1.5-3.75,5.61,5.61,0,0,1,1.5-3.75,5.33,5.33,0,0,1,3.75-1.5,5.61,5.61,0,0,1,3.75,1.5A5.92,5.92,0,0,1,11709.32,8080.91Zm-24,41.7h2.4v-31.8a15.11,15.11,0,0,0-8.55-13.65h0a15.11,15.11,0,0,0-8.55,13.65v31.8h2.25m-7.8-9.3a6.46,6.46,0,0,0-3.75-5.85h0a6.63,6.63,0,0,0-3.75,5.85v13.8h7.5v-13.8Zm-6.45,16.95v5.4a5,5,0,0,0,2.7,4.35h0a4.67,4.67,0,0,0,2.7-4.35v-5.4m12.3,0v5.4a5,5,0,0,0,2.7,4.35h0a4.67,4.67,0,0,0,2.7-4.35v-5.4m12.3,0v5.4a5,5,0,0,0,2.7,4.35h0a4.67,4.67,0,0,0,2.7-4.35v-5.4m0.9-16.95a6.46,6.46,0,0,0-3.75-5.85h0a6.46,6.46,0,0,0-3.75,5.85v13.8h7.5v-13.8Zm-17.7,0a6.46,6.46,0,0,0-3.75-5.85h0a6.63,6.63,0,0,0-3.75,5.85v13.8h7.5v-13.8Zm-17.55,4.05,5.4-5.7m-5.4,11.1,5.4-5.7m22.65,0.3-5.4-5.7m5.4,11.1-5.4-5.7m-8.7-25.2a3.45,3.45,0,1,0,3.45,3.45A3.31,3.31,0,0,0,11679,8091.86Zm-7.5-6.9h15m-28.35,33.45h7.5m10,0h7.5m10.2,0h7.5m11.55-2.4a8.5,8.5,0,0,0,2.55-6.15,8.86,8.86,0,0,0-2.55-6.15,8.5,8.5,0,0,0-6.15-2.55m-1.65,4.5a5.54,5.54,0,0,0,1.65-4.05,5.8,5.8,0,0,0-1.65-4.05,5.54,5.54,0,0,0-4-1.65,5.8,5.8,0,0,0-4.05,1.65,5.54,5.54,0,0,0-1.65,4.05h-3.9m-39.9-4.65a4.68,4.68,0,0,0,1.35-3.15,4.32,4.32,0,0,0-1.35-3.15,4.68,4.68,0,0,0-3.15-1.35,4.32,4.32,0,0,0-3.15,1.35,4.68,4.68,0,0,0-1.35,3.15m24.3-1.5h-3.6a6,6,0,0,0-12,0" transform="translate(-11631.32 -8059.76)"/><rect class="cls-3" width="96" height="96"/></svg>
