<svg id="design" xmlns="http://www.w3.org/2000/svg" xmlns:xlink="http://www.w3.org/1999/xlink" viewBox="0 0 96 96" stroke-linejoin="round"><defs><style>.cls-1,.cls-3{opacity:0.1;}.cls-2,.cls-3{fill:#00c4f4;}.cls-4,.cls-5{fill:none;}.cls-4{stroke-miterlimit:10;stroke-width:2px;stroke:url(#Secondary);}</style><linearGradient id="Secondary" x1="11397.96" y1="6277.8" x2="11449.38" y2="6329.22" gradientTransform="matrix(1, 0, 0, -1, 0, 13736.72)" gradientUnits="userSpaceOnUse"><stop offset="0" stop-color="#001ddb"/><stop offset="1" stop-color="#00c4f4"/></linearGradient></defs><title>hosting-secondary</title><g id="_Groep_" data-name="&lt;Groep&gt;" class="cls-1"><path id="_Pad_" data-name="&lt;Pad&gt;" class="cls-2" d="M11402.61,7406a15.57,15.57,0,0,1,22.2,0,15,15,0,0,1,4,7.2h14.1a14.19,14.19,0,0,1,14,11.7,9.9,9.9,0,0,0,.15-2.1,14.08,14.08,0,0,0-14.1-14.1h-14.1a16.36,16.36,0,0,0-4-7.2,15.75,15.75,0,0,0-26.85,11.1c0,0.75.15,1.5,0.15,2.25A16.18,16.18,0,0,1,11402.61,7406Z" transform="translate(-11375.31 -7381.2)"/></g><path id="_Pad_2" data-name="&lt;Pad&gt;" class="cls-3" d="M11427.81,7461.45V7427.1a0.32,0.32,0,0,0-.3-0.3h6a0.32,0.32,0,0,1,.3.3v34.35a0.32,0.32,0,0,1-.3.3h-6A0.32,0.32,0,0,0,11427.81,7461.45Z" transform="translate(-11375.31 -7381.2)"/><path id="_Pad_3" data-name="&lt;Pad&gt;" class="cls-3" d="M11453.46,7437.3l-10.2-10.2h-0.3l-10.2,10.2c-0.15.15,0,.3,0.15,0.3h4.5v24.15h11.4V7437.6h4.5C11453.46,7437.6,11453.46,7437.3,11453.46,7437.3Z" transform="translate(-11375.31 -7381.2)"/><path id="_Samengesteld_pad_" data-name="&lt;Samengesteld pad&gt;" class="cls-4" d="M11433.36,7461.75h-31a0.32,0.32,0,0,1-.3-0.3V7427.1a0.32,0.32,0,0,1,.3-0.3h31a0.32,0.32,0,0,1,.3.3v34.35A0.32,0.32,0,0,1,11433.36,7461.75Zm0.3-23.4H11402m31.65,12H11402m6.15,6h3.3m4.5,0h3.3m4.65,0h3.3m21.6-12.9v-5.85h4.5c0.15,0,.3-0.15.15-0.3l-10.2-10.2h-0.3l-5.85,5.85m11.7,28.8V7448m-7.5,13.8V7439m-12-26.7a15.75,15.75,0,1,0-29.85,7.05m55.2,10.95a14,14,0,0,0-11.7-21.9h-13.8m-30.45,7a9.19,9.19,0,0,0-9.15,9.15,9.09,9.09,0,0,0,9.15,9.15" transform="translate(-11375.31 -7381.2)"/><rect class="cls-5" width="96" height="96"/></svg>
