<svg id="design" xmlns="http://www.w3.org/2000/svg" xmlns:xlink="http://www.w3.org/1999/xlink" viewBox="0 0 96 96" stroke-linejoin="round"><defs><style>.cls-1{fill:#00c4f4;opacity:0.1;}.cls-2,.cls-3{fill:none;}.cls-2{stroke-miterlimit:10;stroke-width:2px;stroke:url(#Secondary);}</style><linearGradient id="Secondary" x1="11305.79" y1="5281.04" x2="11348.31" y2="5323.57" gradientTransform="matrix(1, 0, 0, -1, 0, 13736.72)" gradientUnits="userSpaceOnUse"><stop offset="0" stop-color="#001ddb"/><stop offset="1" stop-color="#00c4f4"/></linearGradient></defs><title>support-secondary</title><path id="_Pad_" data-name="&lt;Pad&gt;" class="cls-1" d="M11326.27,8467.28h-6.3a2.37,2.37,0,0,1-2.4-2.4h0a2.37,2.37,0,0,1,2.4-2.4h6.3a2.37,2.37,0,0,1,2.4,2.4h0A2.37,2.37,0,0,1,11326.27,8467.28Z" transform="translate(-11279.32 -8387.33)"/><path id="_Pad_2" data-name="&lt;Pad&gt;" class="cls-1" d="M11299,8436.68v-6.6a4.51,4.51,0,0,1,4.5-4.5h-4.5a4.51,4.51,0,0,0-4.5,4.5v6.6a4.51,4.51,0,0,0,4.5,4.5h4.5A4.51,4.51,0,0,1,11299,8436.68Z" transform="translate(-11279.32 -8387.33)"/><path id="_Pad_3" data-name="&lt;Pad&gt;" class="cls-1" d="M11355.67,8425.58h-4.5a4.51,4.51,0,0,1,4.5,4.5v6.6a4.51,4.51,0,0,1-4.5,4.5h4.5a4.51,4.51,0,0,0,4.5-4.5v-6.6A4.51,4.51,0,0,0,11355.67,8425.58Z" transform="translate(-11279.32 -8387.33)"/><path id="_Samengesteld_pad_" data-name="&lt;Samengesteld pad&gt;" class="cls-2" d="M11315.92,8428.73V8428h0a2,2,0,0,1,2-1.95h4.95a2,2,0,0,1,2,1.95V8429a2.56,2.56,0,0,1-1,1.95l-6.9,5.25a2.07,2.07,0,0,0-.9,1.65v2.25a1,1,0,0,0,1.05,1.05h9.3m9.9,1.2V8426h-1.65l-7.2,8.7v0.15h13.05m-11.7,30.15h0a2.37,2.37,0,0,0-2.4-2.4h-6.3a2.37,2.37,0,0,0-2.4,2.4h0a2.37,2.37,0,0,0,2.4,2.4h6.3A2.37,2.37,0,0,0,11328.67,8465Zm-24.6-39.3h-5.1a4.51,4.51,0,0,0-4.5,4.5v6.6a4.51,4.51,0,0,0,4.5,4.5h5.1v-15.6Zm46.5,15.45h5.1a4.51,4.51,0,0,0,4.5-4.5v-6.6a4.51,4.51,0,0,0-4.5-4.5h-5.1v15.6Zm-45.75-20.55a23.29,23.29,0,0,0-.6,3.15m3.9-10.35a25.92,25.92,0,0,0-2.4,4.5m42.9-.9a23.38,23.38,0,0,0-21.3-13.8h0a22.8,22.8,0,0,0-17.25,7.8m40.05,10.5a12.5,12.5,0,0,0-.6-2.25m-22.2,45.75a23.37,23.37,0,0,0,23.25-23.25V8437" transform="translate(-11279.32 -8387.33)"/><rect class="cls-3" width="96" height="96"/></svg>
